<svg width="43" height="43" viewBox="0 0 43 43" fill="none" xmlns="http://www.w3.org/2000/svg">
<path d="M35.6072 14.4296L35.6072 14.4295H35.5993L35.5735 14.4295L35.5716 14.4295C35.4921 14.43 35.4465 14.4134 35.4203 14.3988C35.3939 14.3841 35.3724 14.3629 35.3538 14.3329C35.3125 14.2666 35.2949 14.1726 35.2908 14.0936V10.9661C35.2908 10.4661 34.8857 10.0604 34.386 10.0604H25.4242C23.0901 10.0604 22.1626 10.931 21.894 11.2686L21.8895 11.2742L21.8853 11.2801L21.8282 11.3594L21.8014 11.3965L21.8013 11.397L21.7414 11.4791H21.7408L21.6509 11.6025C21.6229 11.641 21.6012 11.6624 21.5873 11.6738C21.5833 11.6705 21.5788 11.6664 21.5742 11.6618L21.2433 11.2491L21.2434 11.2491L21.2402 11.2452L21.0724 11.043L21.0658 11.0351L21.0587 11.0276C20.7263 10.6786 19.9152 10.0604 18.3677 10.0604H8.82006C8.31976 10.0604 7.9143 10.4658 7.9143 10.9661V14.0607C7.9143 14.2768 7.85694 14.3546 7.8313 14.3805C7.80426 14.4079 7.76702 14.4232 7.72212 14.4295H7.60536H7.59611L7.58688 14.43C7.47398 14.437 7.27108 14.4739 7.09664 14.6437C6.91805 14.8175 6.81658 15.084 6.81658 15.4527V30.2019C6.81658 30.7297 7.24452 31.1566 7.77176 31.1566H16.4855C19.1634 31.1566 20.297 32.1561 20.6121 32.5022L20.8139 32.7522L20.904 32.8637H20.9289C20.9375 32.871 20.9466 32.8785 20.9561 32.8862C21.0335 32.9483 21.1493 33.027 21.2948 33.0809C21.4422 33.1355 21.6258 33.1664 21.8282 33.1221C22.0319 33.0774 22.2283 32.9622 22.409 32.7682L22.4092 32.7684L22.4177 32.7585L22.5165 32.6427L22.5193 32.6406L22.5409 32.6154L22.6959 32.434L22.696 32.4341L22.6964 32.4335C22.6964 32.4335 22.6965 32.4334 22.6967 32.4331C22.6973 32.4325 22.6985 32.4311 22.7006 32.4288L22.7178 32.4098C22.7322 32.3943 22.752 32.3731 22.7756 32.3489C23.1886 31.9484 24.2741 31.1566 26.4539 31.1566H35.4338C35.9617 31.1566 36.389 30.7295 36.389 30.2019V15.3099C36.389 14.9603 36.2564 14.7186 36.0574 14.5765C35.877 14.4478 35.6839 14.4316 35.6072 14.4296ZM22.124 29.6001L21.8907 29.4126L21.8842 29.4213L21.7631 29.5836L21.7631 29.5836L21.7604 29.5873L21.7282 29.6319L21.7049 29.6635C21.6901 29.6837 21.6801 29.691 21.676 29.6932C21.6744 29.6934 21.6633 29.6944 21.6392 29.6862C21.6118 29.6769 21.5827 29.6607 21.5577 29.6435C21.5511 29.639 21.5453 29.6347 21.5405 29.6311L21.3896 29.4423L21.3896 29.4423L21.3858 29.4377C21.2148 29.2323 20.1698 28.1122 17.7261 28.1122H10.1087C9.96388 28.1122 9.86503 28.002 9.86503 27.8872V12.1708C9.86503 12.056 9.96388 11.9458 10.1087 11.9458H16.0226C18.1645 11.9458 19.2776 12.5523 19.8628 13.1889C20.4505 13.8283 20.5532 14.5492 20.5669 14.8766V25.8006C20.5669 26.2428 20.6724 26.5585 20.8567 26.77C21.0426 26.9834 21.2714 27.0483 21.4286 27.0643L21.4438 27.0659H21.4591H21.7769H21.7919L21.8068 27.0644C21.9544 27.0496 22.1712 26.9963 22.3513 26.818C22.5365 26.6348 22.6405 26.3621 22.6405 25.9951V14.7295V14.6569C22.6648 14.22 22.7686 13.5632 23.1256 13.0089C23.4924 12.4396 24.1461 11.9453 25.3698 11.9453H33.0969C33.2432 11.9453 33.3415 12.0557 33.3415 12.1704V27.8876C33.3415 28.0026 33.2434 28.1127 33.0969 28.1127H25.7085C24.3467 28.1127 23.4028 28.4208 22.7914 28.7409C22.4866 28.9005 22.2666 29.0619 22.1202 29.1868C22.047 29.2492 21.9923 29.3024 21.9546 29.3417C21.9357 29.3613 21.9211 29.3774 21.9105 29.3895L21.8977 29.4044L21.8935 29.4094L21.892 29.4113L21.8913 29.4121L21.8911 29.4124C21.8909 29.4126 21.8908 29.4127 22.124 29.6001ZM21.5268 29.6201C21.5266 29.6199 21.5267 29.6199 21.5271 29.6204L21.5268 29.6201Z" fill="#7E8BFF" stroke="#7E8BFF" stroke-width="0.6"/>
</svg>
