<svg width="44" height="43" viewBox="0 0 44 43" fill="none" xmlns="http://www.w3.org/2000/svg">
<path d="M29.2778 19.7155C30.1693 18.7175 30.716 17.4049 30.716 15.9619C30.716 12.8458 28.1895 10.3193 25.0734 10.3193C21.9574 10.3193 19.4309 12.8458 19.4309 15.9619C16.3148 15.9619 13.7884 18.4883 13.7884 21.6044C13.7884 23.0475 14.335 24.36 15.2265 25.3581C12.6465 26.5952 10.9671 28.9241 10.9671 31.4788C10.9671 32.2391 11.5624 32.8894 12.3778 32.8894H26.4841C27.2994 32.8894 27.8947 32.2391 27.8947 31.4788C27.8947 29.9165 27.2613 28.4417 26.1829 27.2469H32.1266C32.9419 27.2469 33.5372 26.5966 33.5372 25.8363C33.5372 23.2816 31.8579 20.9527 29.2778 19.7155ZM25.0734 13.1406C26.6315 13.1406 27.8947 14.4038 27.8947 15.9619C27.8947 17.5199 26.6315 18.7831 25.0734 18.7831C24.7758 18.7831 24.4944 18.7246 24.225 18.6385C23.7651 17.8965 23.1388 17.2709 22.3968 16.8103C22.3107 16.5409 22.2522 16.2595 22.2522 15.9619C22.2522 14.4038 23.5154 13.1406 25.0734 13.1406ZM19.4309 18.7831C20.989 18.7831 22.2522 20.0463 22.2522 21.6044C22.2522 23.1624 20.989 24.4256 19.4309 24.4256C17.8729 24.4256 16.6097 23.1624 16.6097 21.6044C16.6097 20.0463 17.8729 18.7831 19.4309 18.7831ZM14.1368 30.0682C14.895 28.5411 16.8354 27.2469 19.4309 27.2469C22.0265 27.2469 23.9668 28.5411 24.725 30.0682H14.1368ZM24.3075 24.4256C24.7913 23.5955 25.0734 22.6341 25.0734 21.6044C27.669 21.6044 29.6093 22.8986 30.3675 24.4256H24.3075Z" fill="#BDBDBD"/>
</svg>
