<svg width="44" height="43" viewBox="0 0 44 43" fill="none" xmlns="http://www.w3.org/2000/svg">
<path d="M29.278 19.7155C30.1695 18.7175 30.7161 17.4049 30.7161 15.9619C30.7161 12.8458 28.1897 10.3193 25.0736 10.3193C21.9575 10.3193 19.4311 12.8458 19.4311 15.9619C16.315 15.9619 13.7885 18.4883 13.7885 21.6044C13.7885 23.0475 14.3352 24.36 15.2267 25.3581C12.6466 26.5952 10.9673 28.9241 10.9673 31.4788C10.9673 32.2391 11.5626 32.8894 12.3779 32.8894H26.4842C27.2996 32.8894 27.8949 32.2391 27.8949 31.4788C27.8949 29.9165 27.2615 28.4417 26.1831 27.2469H32.1268C32.9421 27.2469 33.5374 26.5966 33.5374 25.8363C33.5374 23.2816 31.858 20.9527 29.278 19.7155ZM25.0736 13.1406C26.6316 13.1406 27.8949 14.4038 27.8949 15.9619C27.8949 17.5199 26.6316 18.7831 25.0736 18.7831C24.776 18.7831 24.4945 18.7246 24.2251 18.6385C23.7652 17.8965 23.1389 17.2709 22.3969 16.8103C22.3109 16.5409 22.2523 16.2595 22.2523 15.9619C22.2523 14.4038 23.5156 13.1406 25.0736 13.1406ZM19.4311 18.7831C20.9891 18.7831 22.2523 20.0463 22.2523 21.6044C22.2523 23.1624 20.9891 24.4256 19.4311 24.4256C17.873 24.4256 16.6098 23.1624 16.6098 21.6044C16.6098 20.0463 17.873 18.7831 19.4311 18.7831ZM14.137 30.0682C14.8952 28.5411 16.8355 27.2469 19.4311 27.2469C22.0266 27.2469 23.967 28.5411 24.7252 30.0682H14.137ZM24.3076 24.4256C24.7915 23.5955 25.0736 22.6341 25.0736 21.6044C27.6692 21.6044 29.6095 22.8986 30.3677 24.4256H24.3076Z" fill="#7E8BFF"/>
</svg>
