<svg width="229" height="496" viewBox="0 0 229 496" fill="none" xmlns="http://www.w3.org/2000/svg">
<path d="M44.9675 289.538L51.8772 306.213L56.2803 302.442L70.1215 277.288L69.4894 271.294L65.7185 265.016H60.6833L44.9675 289.538Z" fill="#FCFAEF"/>
<path d="M8.17407 277.266C9.27822 280.781 10.1878 284.353 10.8987 287.968L51.7685 306.213C51.7685 306.213 55.2342 303.074 47.409 293.003L8.17407 277.266Z" fill="#EFEAD8"/>
<path d="M163.087 472.983C163.087 472.983 160.907 465.637 160.776 463.545C160.645 461.452 145.06 463.131 145.06 463.131C145.06 463.131 145.889 473.397 145.889 474.247C145.889 475.097 163.087 472.983 163.087 472.983Z" fill="#F7C09A"/>
<path d="M163.937 469.3C163.937 469.3 179.87 481.049 184.491 483.141C189.112 485.234 191.619 486.912 194.976 486.912C198.333 486.912 198.333 491.097 197.483 492.775C196.632 494.454 189.941 494.454 184.404 494.454C178.07 494.577 171.741 494.015 165.528 492.775C161.343 491.511 158.182 490.051 157.354 492.557C151.668 494.722 145.372 494.644 139.742 492.339C139.595 486.882 139.806 481.421 140.374 475.992C140.657 474.877 141.235 473.859 142.049 473.045C142.862 472.232 143.88 471.653 144.995 471.371C144.995 471.371 158.487 473.921 163.937 469.3Z" fill="#00353B"/>
<path d="M87.1887 464.7C86.1283 468.418 85.2913 472.195 84.6821 476.013C84.6821 478.193 70.8409 473.833 70.8409 473.833L68.6611 470.476L70.8409 460.842L87.1887 464.7Z" fill="#F7C09A"/>
<path d="M86.1643 472.983C87.4297 475.749 88.2745 478.687 88.671 481.702C88.889 485.473 88.889 491.773 88.2569 492.819C87.6248 493.865 81.5433 495.958 76.312 495.958C72.8269 496.156 69.3372 495.659 66.0455 494.497C65.2172 493.865 65.6314 491.359 63.735 491.773C61.8387 492.187 63.1029 494.911 58.0678 494.911C53.0326 494.911 35.8564 496.176 30.3853 494.083C30.3853 494.083 28.2056 493.037 28.2056 491.903C28.2056 490.77 27.7915 488.133 28.8377 487.086C29.884 486.04 38.4721 485.408 44.9895 481.005C51.5068 476.602 67.6367 469.888 68.683 469.474C69.7293 469.06 77.1403 476.231 86.1643 472.983Z" fill="#00353B"/>
<path d="M178.606 209.978C178.606 209.978 181.745 241.432 181.745 245.203C181.745 248.973 166.661 247.709 166.661 247.709L155.981 211.853L178.606 209.978Z" fill="#00353B"/>
<path d="M98.0872 204.878L97.4551 236.942L82.3715 232.582L79.2327 220.637C79.2327 220.637 79.8648 207.428 83.5921 201.151C87.3194 194.873 98.0872 204.878 98.0872 204.878Z" fill="#00353B"/>
<path d="M168.536 213.749C168.536 213.749 175.445 227.59 174.203 230.097C171.957 233.225 169.433 236.143 166.661 238.815C166.661 238.815 180.502 239.448 183.641 238.183C184.457 313.421 178.35 388.575 165.397 462.694C165.397 462.694 150.313 469.604 140.875 464.591C140.875 464.591 130.194 287.249 128.298 273.408C128.298 273.408 111.318 396.039 93.706 465.855C93.706 465.855 75.4617 472.765 65.3696 461.496C65.3696 461.496 71.0369 343.268 73.5436 288.557C76.0503 233.846 79.2108 218.13 79.2108 218.13C79.2108 218.13 83.5703 226.849 91.4827 228.2C91.4827 228.2 87.1232 220.964 87.1232 218.762C87.1232 216.561 92.7905 205.248 92.7905 205.248L168.536 213.749Z" fill="#205D67"/>
<path d="M128.298 274.323C128.139 274.322 127.984 274.274 127.852 274.185C127.72 274.096 127.617 273.969 127.557 273.822C126.751 271.926 126.642 268.198 127.557 267.087C127.704 266.916 127.898 266.792 128.115 266.73C128.332 266.668 128.562 266.671 128.778 266.738C131.279 267.128 133.817 267.23 136.341 267.043C137.475 264.863 138.085 247.186 138.085 231.339C138.085 231.123 138.171 230.915 138.324 230.761C138.478 230.608 138.686 230.522 138.902 230.522C139.119 230.522 139.327 230.608 139.48 230.761C139.634 230.915 139.72 231.123 139.72 231.339C139.72 268.22 137.54 268.504 136.821 268.634C134.103 268.87 131.368 268.79 128.669 268.395C128.316 269.981 128.415 271.634 128.952 273.168C129.007 273.291 129.03 273.426 129.019 273.56C129.008 273.694 128.964 273.824 128.89 273.937C128.816 274.049 128.715 274.142 128.597 274.205C128.478 274.269 128.346 274.302 128.211 274.302L128.298 274.323Z" fill="#00353B"/>
<path d="M117.291 80.1107C117.291 80.1107 123.263 66.5964 125.16 61.5613C127.056 56.5261 146.957 72.4599 146.957 72.4599L146.325 86.3011L132.963 88.9168L117.291 80.1107Z" fill="#F2B48B"/>
<path d="M122.435 49.3978C122.435 49.3978 120.255 68.0126 132.287 74.1376C135.289 75.7284 138.608 76.6284 142.002 76.7717C145.396 76.915 148.779 76.298 151.905 74.9659C156.537 72.7363 160.246 68.9585 162.389 64.2853C164.433 60.2244 166.182 56.0212 167.62 51.7083C167.62 51.7083 173.702 49.8119 176.012 46.477C178.323 43.142 177.952 40.0904 175.228 39.9378C172.226 40.2078 169.284 40.9431 166.509 42.1175L166.094 29.9547L138.15 20.4729L125.988 23.4155L124.941 37.4529" fill="#F7C09A"/>
<path d="M132.287 22.152C132.207 24.9853 131.339 27.7403 129.781 30.1079C128.227 32.8008 126.152 35.1571 123.677 37.0394L122.413 52.7552C121.699 52.8088 120.984 52.6592 120.352 52.3236C119.719 51.988 119.194 51.4802 118.838 50.8589C117.298 48.0629 116.3 45.0013 115.896 41.8348C116.947 32.4012 118.496 23.0298 120.539 13.76C121.803 9.57498 124.527 6.00024 127.078 6.21821C129.165 6.529 131.208 7.0926 133.159 7.8966C133.159 7.8966 133.53 20.2556 132.287 22.152Z" fill="#383838"/>
<path d="M139.611 41.5951C137.798 41.274 135.949 41.2079 134.118 41.3989C133.028 41.8785 130.979 38.1075 131.285 37.301C131.59 36.4946 134.75 35.5791 137.584 35.7316C140.418 35.8842 142.772 35.7317 142.292 38.5653C141.813 41.3989 140.875 41.3989 139.611 41.5951Z" fill="#383838"/>
<path d="M163.828 46.9352C162.016 46.2196 160.104 45.793 158.16 45.671C155.654 45.671 155.806 40.7884 156.264 40.1781C156.722 39.5678 161.604 40.0255 163.958 40.8102C166.312 41.5949 166.138 42.9899 165.855 45.1696C165.571 47.3494 164.307 47.2622 163.828 46.9352Z" fill="#383838"/>
<path d="M133.116 7.89639C135.661 5.33747 138.606 3.20986 141.834 1.597C146.041 -0.0159944 154.281 -0.909679 154.281 1.40082C154.281 3.71132 152.384 5.17174 156.46 6.85012C160.536 8.5285 168.405 9.02984 173.658 17.5307C178.911 26.0316 174.705 30.3257 173.026 33.4645C171.348 36.6033 172.394 39.5459 166.727 42.0526C161.06 44.5593 154.782 40.1562 149.747 36.8213C144.712 33.4863 145.758 33.4645 141.159 31.7861C136.559 30.1077 132.571 28.0152 132.135 24.4405C131.699 20.8657 131.655 9.98892 133.116 7.89639Z" fill="#383838"/>
<path d="M168.078 47.4145C168.078 47.4145 173.266 42.2267 174.617 43.6436C175.969 45.0604 169.125 49.3108 168.492 48.9839C167.86 48.6569 167.294 47.9376 168.078 47.4145Z" fill="#B99073"/>
<path d="M150.401 63.1959C147.776 63.3251 145.157 62.8386 142.754 61.775C140.35 60.7115 138.229 59.1005 136.559 57.0709C136.559 57.0709 134.837 55.5015 134.99 57.5504C135.143 59.5993 136.211 63.828 142.227 66.2693C145.91 67.9477 150.204 65.8551 150.401 63.1959Z" fill="white"/>
<path d="M127.971 47.9383C127.971 47.9383 135.099 48.6794 135.404 50.118C135.709 51.5566 135.404 52.5375 131.742 52.2977C128.08 52.058 126.598 52.2977 126.511 50.6194C126.424 48.941 126.62 47.7203 127.971 47.9383Z" fill="#EDA16E"/>
<path d="M163.937 57.485C162.027 56.1603 159.944 55.1042 157.746 54.3462C156.177 54.3462 155.022 55.9156 156.177 56.7657C157.332 57.6158 160.536 61.5829 161.517 61.2777C162.498 60.9725 164.351 58.6184 163.937 57.485Z" fill="#EDA16E"/>
<path d="M119.187 76.0341L120.756 71.9144C120.756 71.9144 103.471 68.1435 74.8514 87.6302C46.2317 107.117 32.6957 176.65 33.6547 198.665C34.6138 220.68 35.5511 227.285 37.7526 229.486C39.9541 231.688 50.6348 237.355 56.302 233.584C56.302 233.584 67.2006 212.201 68.879 201.826C70.5574 191.45 69.5111 183.276 73.5872 174.47C77.6633 165.664 83.9627 145.851 83.9627 145.851C83.9627 145.851 76.0939 178.873 75.7887 184.519C75.4836 190.164 72.6281 201.172 92.4418 209.673C112.255 218.174 150.4 225.388 172.328 217.541C194.256 209.695 193.406 203.068 193.406 198.36V186.72C195.721 189.199 198.718 190.936 202.02 191.712C205.322 192.488 208.779 192.268 211.956 191.08C223.268 186.982 234.908 160.564 224.533 136.587C214.157 112.61 182.072 83.4452 149.703 77.7343L146.869 78.0395L146.564 80.5461C146.564 80.5461 134.903 90.1805 119.187 76.0341Z" fill="#E2E9F2"/>
<path d="M83.9628 146.657H83.7666C83.5572 146.606 83.3762 146.474 83.2622 146.291C83.1483 146.108 83.1102 145.887 83.1563 145.677C86.2515 132.598 88.4748 118.822 88.4966 118.692C88.5313 118.478 88.6495 118.286 88.8253 118.16C89.0011 118.033 89.22 117.981 89.4339 118.016C89.6478 118.051 89.8391 118.169 89.9659 118.345C90.0926 118.52 90.1443 118.739 90.1096 118.953C90.1096 119.084 87.9299 132.969 84.7475 146.047C84.7004 146.22 84.5984 146.373 84.4569 146.483C84.3154 146.593 84.142 146.654 83.9628 146.657Z" fill="#AAAFB5"/>
<path d="M193.385 187.44C193.229 187.488 193.061 187.488 192.905 187.44C192.731 187.309 175.598 174.623 173.07 145.655C173.045 145.54 173.045 145.421 173.07 145.306C173.07 145.306 177.059 134.625 191.336 138.178H191.641C197.744 139.486 204.85 143.758 212.763 150.864C212.843 150.936 212.908 151.022 212.955 151.119C213.001 151.216 213.028 151.321 213.034 151.428C213.041 151.536 213.025 151.643 212.99 151.744C212.955 151.846 212.899 151.939 212.828 152.019C212.756 152.1 212.67 152.165 212.573 152.212C212.476 152.258 212.371 152.285 212.264 152.291C212.157 152.297 212.049 152.282 211.948 152.247C211.846 152.211 211.753 152.156 211.673 152.085C204 145.175 197.134 141.034 191.314 139.769H190.965C178.933 136.761 175.228 144.456 174.705 145.698C177.211 173.751 193.69 185.979 193.843 186.11C193.991 186.207 194.104 186.35 194.164 186.517C194.223 186.684 194.226 186.866 194.171 187.035C194.117 187.204 194.008 187.35 193.862 187.451C193.716 187.552 193.54 187.601 193.363 187.592L193.385 187.44Z" fill="#AAAFB5"/>
<path d="M201.886 144.456C201.672 144.485 201.455 144.428 201.284 144.297C201.112 144.166 200.999 143.972 200.97 143.758C200.941 143.545 200.999 143.328 201.129 143.156C201.26 142.985 201.454 142.872 201.668 142.843C210.932 140.293 215.204 141.862 215.378 141.927C215.478 141.966 215.57 142.024 215.648 142.098C215.725 142.172 215.788 142.261 215.831 142.359C215.875 142.457 215.899 142.563 215.901 142.67C215.904 142.778 215.885 142.884 215.847 142.985C215.808 143.085 215.75 143.176 215.676 143.254C215.602 143.332 215.513 143.394 215.415 143.438C215.317 143.481 215.211 143.505 215.104 143.508C214.997 143.51 214.89 143.492 214.79 143.453C214.79 143.453 210.735 142.036 202.082 144.412L201.886 144.456Z" fill="#AAAFB5"/>
<path d="M167.293 87.6525C167.293 87.6525 191.51 66.9016 192.447 68.1659C193.913 71.6517 195.158 75.2262 196.175 78.8683L169.757 89.7669L167.293 87.6525Z" fill="#FCFAEF"/>
<path d="M159.425 138.592L167.294 87.6741L202.191 72.8738L192.121 125.078L159.425 138.592Z" fill="#7E8BFF"/>
<path d="M159.425 138.593L167.293 87.6745L130.195 68.7981L121.062 119.738L159.425 138.593Z" fill="#7E8BFF"/>
<path d="M156.591 94.584L154.39 106.834L134.576 97.7228L136.777 84.2085L156.591 94.584Z" fill="white"/>
<path d="M173.266 134.669L173.898 131.377C173.381 127.339 173.544 123.243 174.378 119.258C175.794 114.376 179.413 109.188 180.197 105.744C180.982 102.3 182.551 101.384 183.968 101.493C185.385 101.602 186.322 101.188 187.587 101.646C188.851 102.104 190.725 106.986 191.51 111.542C192.295 116.098 189.33 126.32 189.33 126.32L192.164 125.056C191.483 127.017 190.356 128.792 188.873 130.244C187.531 131.388 186.111 132.437 184.622 133.383L173.266 134.669Z" fill="#F7C09A"/>
<path d="M173.898 145.524C170.759 142.385 172.329 134.211 172.329 134.211C173.898 132.032 183.227 131.073 185.538 132.315C187.749 134.193 189.66 136.399 191.205 138.854C187.901 137.743 184.317 137.797 181.048 139.007C179.44 139.48 177.96 140.312 176.722 141.441C175.483 142.571 174.517 143.967 173.898 145.524Z" fill="#AAAFB5"/>
<path d="M68.5522 278.225L55.0379 302.442C55.0379 302.442 55.67 304.011 56.6073 303.706C57.5446 303.401 71.0806 278.857 71.0806 278.857C71.0806 278.857 72.977 268.177 66.9828 261.877L19.1815 241.431L0 275.086L48.1064 297.101L65.0864 267.544C65.0864 267.544 68.8573 268.787 68.5522 278.225Z" fill="#7E8BFF"/>
<path d="M48.7385 243.306C50.7575 245.503 52.453 247.976 53.7737 250.652C54.5273 252.548 54.8475 254.588 54.711 256.624L49.6758 254.444C48.7544 256.984 47.3644 259.328 45.5779 261.354C41.5361 266.699 38.3518 272.641 36.1397 278.966C35.2025 283.064 33.001 281.473 32.3688 280.536C31.8481 278.271 31.6354 275.947 31.7367 273.626C31.7367 272.689 28.5979 270.792 27.6388 268.286C26.6565 265.129 26.1281 261.848 26.0694 258.542C25.7643 254.183 29.2082 247.644 32.3688 244.701C34.1701 243.107 35.6499 241.184 36.7283 239.034L48.7385 243.306Z" fill="#F7C09A"/>
<path d="M53.4466 232.93C53.4466 232.93 53.1414 241.649 50.3078 245.507C50.3078 245.507 40.2375 246.445 35.2241 241.736C36.042 237.152 37.2005 232.635 38.6899 228.222L53.4466 232.93Z" fill="#AAAFB5"/>
<path d="M187.565 117.929H187.456C187.318 117.893 187.2 117.804 187.126 117.682C187.053 117.559 187.03 117.413 187.064 117.275C187.603 115.134 187.918 112.942 188.001 110.735C187.525 107.749 186.899 104.788 186.126 101.864C186.097 101.792 186.083 101.714 186.086 101.636C186.089 101.558 186.109 101.481 186.144 101.411C186.179 101.341 186.229 101.28 186.29 101.231C186.351 101.182 186.422 101.147 186.498 101.128C186.574 101.109 186.653 101.107 186.73 101.121C186.807 101.136 186.88 101.166 186.944 101.211C187.008 101.256 187.061 101.314 187.101 101.382C187.14 101.449 187.165 101.525 187.173 101.602C187.962 104.59 188.595 107.617 189.069 110.67C189.005 113.009 188.683 115.333 188.11 117.602C188.065 117.706 187.988 117.794 187.89 117.853C187.792 117.911 187.679 117.938 187.565 117.929Z" fill="#E08D63"/>
<path d="M183.794 117.449H183.554C183.489 117.417 183.431 117.372 183.384 117.317C183.337 117.262 183.301 117.198 183.278 117.129C183.256 117.06 183.248 116.987 183.254 116.915C183.26 116.843 183.281 116.772 183.314 116.708C184.106 114.725 184.513 112.609 184.513 110.474C184.666 106.311 184.361 101.755 184.361 101.755C184.361 101.611 184.418 101.472 184.52 101.37C184.622 101.268 184.761 101.21 184.906 101.21C185.05 101.21 185.189 101.268 185.291 101.37C185.393 101.472 185.45 101.611 185.45 101.755C185.45 101.755 185.756 106.398 185.603 110.627C185.609 112.914 185.164 115.181 184.295 117.297C184.231 117.362 184.152 117.41 184.064 117.437C183.976 117.464 183.884 117.468 183.794 117.449Z" fill="#E08D63"/>
<path d="M180.328 116.969H180.176C180.037 116.929 179.92 116.835 179.85 116.708C179.781 116.581 179.765 116.432 179.805 116.294C180.519 113.852 181.087 111.37 181.505 108.861C181.505 108.207 181.505 107.378 181.505 106.485C181.363 104.926 181.533 103.355 182.007 101.864C182.082 101.719 182.211 101.611 182.366 101.561C182.522 101.512 182.69 101.527 182.835 101.602C182.979 101.677 183.088 101.807 183.137 101.962C183.186 102.118 183.172 102.286 183.096 102.431C182.763 103.762 182.645 105.138 182.748 106.507C182.748 107.4 182.748 108.25 182.748 108.97C182.327 111.554 181.744 114.109 181.004 116.62C180.959 116.755 180.863 116.867 180.737 116.932C180.611 116.997 180.464 117.011 180.328 116.969Z" fill="#E08D63"/>
<path d="M31.7586 274.04C31.614 274.04 31.4754 273.983 31.3732 273.88C31.271 273.778 31.2136 273.64 31.2136 273.495C31.3531 270.092 32.2308 266.76 33.7857 263.73C33.8199 263.667 33.8663 263.611 33.9221 263.566C33.9779 263.521 34.0421 263.487 34.1109 263.467C34.1798 263.447 34.252 263.44 34.3234 263.448C34.3947 263.456 34.4639 263.477 34.5268 263.512C34.5899 263.546 34.6456 263.593 34.6907 263.648C34.7359 263.704 34.7695 263.768 34.7898 263.837C34.81 263.906 34.8165 263.978 34.8088 264.05C34.801 264.121 34.7793 264.19 34.7448 264.253C33.2972 267.107 32.4655 270.234 32.3035 273.43C32.3128 273.507 32.3056 273.585 32.2824 273.658C32.2592 273.732 32.2205 273.8 32.169 273.858C32.1174 273.916 32.0541 273.962 31.9834 273.993C31.9126 274.025 31.836 274.041 31.7586 274.04Z" fill="#E08D63"/>
<path d="M29.448 271.315C29.3417 271.315 29.2375 271.285 29.1484 271.227C29.0594 271.169 28.9892 271.086 28.9467 270.988C28.2294 268.279 28.2975 265.421 29.1429 262.749C29.1833 262.61 29.2772 262.493 29.404 262.424C29.5307 262.354 29.6798 262.338 29.8186 262.378C29.8873 262.398 29.9513 262.432 30.0071 262.476C30.0629 262.521 30.1094 262.577 30.1438 262.639C30.1782 262.702 30.1999 262.771 30.2077 262.842C30.2155 262.913 30.2092 262.985 30.1891 263.054C29.4343 265.487 29.3589 268.08 29.9711 270.552C29.9994 270.619 30.0139 270.691 30.0138 270.764C30.0137 270.837 29.9989 270.909 29.9705 270.976C29.942 271.043 29.9004 271.104 29.8481 271.155C29.7958 271.205 29.7339 271.245 29.666 271.272L29.448 271.315Z" fill="#E08D63"/>
<path d="M124.375 36.4724C124.375 36.4724 120.015 27.6009 115.307 27.1868C110.599 26.7726 109.226 27.6009 109.444 29.0831C110.486 33.2881 112.418 37.2203 115.111 40.6138C117.105 42.6481 118.99 44.7873 120.756 47.0222C120.756 47.0222 121.389 49.0275 122.936 48.0249L126.664 42.205L125.116 36.0364L124.375 36.4724Z" fill="#F7C09A"/>
<path d="M121.389 40.178C121.389 40.178 117.291 32.6361 114.849 32.4836C112.408 32.331 117.988 41.5948 119.209 41.9217C120.429 42.2487 120.756 40.5049 121.389 40.178Z" fill="#B99073"/>
<path d="M160.122 52.1444C161.013 52.1444 161.735 51.4223 161.735 50.5314C161.735 49.6406 161.013 48.9185 160.122 48.9185C159.231 48.9185 158.509 49.6406 158.509 50.5314C158.509 51.4223 159.231 52.1444 160.122 52.1444Z" fill="#3E3020"/>
<path d="M137.78 47.6107C138.671 47.6107 139.393 46.8886 139.393 45.9978C139.393 45.1069 138.671 44.3848 137.78 44.3848C136.889 44.3848 136.167 45.1069 136.167 45.9978C136.167 46.8886 136.889 47.6107 137.78 47.6107Z" fill="#3E3020"/>
<path d="M152.232 48.2214L152.101 58.3135C152.096 58.481 152.056 58.6456 151.984 58.7967C151.912 58.9478 151.809 59.0822 151.681 59.191C151.554 59.2998 151.405 59.3808 151.245 59.4286C151.084 59.4765 150.915 59.4902 150.749 59.4688C148.46 59.2599 146.269 58.4393 144.406 57.0929C143.578 55.9812 148.221 47.0662 148.221 47.0662C148.221 47.0662 148.352 46.5212 149.507 46.5212C150.662 46.5212 152.297 47.3277 152.232 48.2214Z" fill="#E08D63"/>
</svg>
