<svg width="44" height="43" viewBox="0 0 44 43" fill="none" xmlns="http://www.w3.org/2000/svg">
<path d="M27.1362 22.3071C28.1123 21.3167 28.7738 20.0598 29.0376 18.6944C29.3014 17.3291 29.1558 15.9162 28.6189 14.6335C28.0821 13.3507 27.178 12.2552 26.0204 11.4847C24.8627 10.7143 23.5032 10.3032 22.1126 10.3032C20.722 10.3032 19.3624 10.7143 18.2048 11.4847C17.0471 12.2552 16.1431 13.3507 15.6062 14.6335C15.0694 15.9162 14.9237 17.3291 15.1875 18.6944C15.4513 20.0598 16.1128 21.3167 17.0889 22.3071C15.2464 23.0314 13.6642 24.2928 12.5477 25.9276C11.4312 27.5624 10.8318 29.4951 10.8275 31.4748C10.8274 31.6601 10.8638 31.8436 10.9347 32.0148C11.0055 32.186 11.1094 32.3415 11.2404 32.4725C11.3715 32.6035 11.527 32.7075 11.6982 32.7783C11.8694 32.8492 12.0529 32.8856 12.2381 32.8855H31.987C32.1723 32.8856 32.3557 32.8492 32.5269 32.7783C32.6981 32.7075 32.8537 32.6035 32.9847 32.4725C33.1157 32.3415 33.2196 32.186 33.2905 32.0148C33.3613 31.8436 33.3977 31.6601 33.3976 31.4748C33.3933 29.4951 32.794 27.5624 31.6774 25.9276C30.5609 24.2928 28.9787 23.0314 27.1362 22.3071ZM22.1126 13.1366C22.9496 13.1366 23.7677 13.3848 24.4637 13.8498C25.1596 14.3148 25.702 14.9758 26.0223 15.7491C26.3426 16.5223 26.4264 17.3732 26.2631 18.1941C26.0999 19.015 25.6968 19.7691 25.105 20.3609C24.5131 20.9528 23.7591 21.3558 22.9382 21.5191C22.1173 21.6824 21.2664 21.5986 20.4931 21.2783C19.7198 20.958 19.0589 20.4156 18.5939 19.7196C18.1289 19.0237 17.8807 18.2055 17.8807 17.3685C17.8819 16.2465 18.3282 15.1709 19.1215 14.3775C19.9149 13.5841 20.9906 13.1379 22.1126 13.1366ZM13.7893 30.0642C14.1171 28.4723 14.9835 27.0419 16.2426 26.0142C17.5017 24.9864 19.0766 24.424 20.7019 24.4217H23.5232C25.1485 24.424 26.7234 24.9864 27.9825 26.0142C29.2416 27.0419 30.1081 28.4723 30.4358 30.0642H13.7893Z" fill="#BDBDBD"/>
</svg>
