<svg width="44" height="43" viewBox="0 0 44 43" fill="none" xmlns="http://www.w3.org/2000/svg">
<path d="M27.1361 22.3071C28.1122 21.3167 28.7737 20.0598 29.0375 18.6944C29.3013 17.3291 29.1556 15.9162 28.6188 14.6335C28.082 13.3507 27.1779 12.2552 26.0202 11.4847C24.8626 10.7143 23.503 10.3032 22.1124 10.3032C20.7219 10.3032 19.3623 10.7143 18.2046 11.4847C17.047 12.2552 16.1429 13.3507 15.6061 14.6335C15.0692 15.9162 14.9236 17.3291 15.1874 18.6944C15.4512 20.0598 16.1127 21.3167 17.0888 22.3071C15.2463 23.0314 13.6641 24.2928 12.5476 25.9276C11.431 27.5624 10.8317 29.4951 10.8274 31.4748C10.8273 31.6601 10.8637 31.8436 10.9346 32.0148C11.0054 32.186 11.1093 32.3415 11.2403 32.4725C11.3713 32.6035 11.5269 32.7075 11.6981 32.7783C11.8693 32.8492 12.0527 32.8856 12.238 32.8855H31.9869C32.1721 32.8856 32.3556 32.8492 32.5268 32.7783C32.698 32.7075 32.8536 32.6035 32.9846 32.4725C33.1156 32.3415 33.2195 32.186 33.2903 32.0148C33.3612 31.8436 33.3976 31.6601 33.3975 31.4748C33.3932 29.4951 32.7939 27.5624 31.6773 25.9276C30.5608 24.2928 28.9786 23.0314 27.1361 22.3071ZM22.1124 13.1366C22.9494 13.1366 23.7676 13.3848 24.4636 13.8498C25.1595 14.3148 25.7019 14.9758 26.0222 15.7491C26.3425 16.5223 26.4263 17.3732 26.263 18.1941C26.0997 19.015 25.6967 19.7691 25.1048 20.3609C24.513 20.9528 23.759 21.3558 22.938 21.5191C22.1171 21.6824 21.2662 21.5986 20.493 21.2783C19.7197 20.958 19.0588 20.4156 18.5938 19.7196C18.1287 19.0237 17.8805 18.2055 17.8805 17.3685C17.8818 16.2465 18.3281 15.1709 19.1214 14.3775C19.9148 13.5841 20.9905 13.1379 22.1124 13.1366ZM13.7892 30.0642C14.1169 28.4723 14.9834 27.0419 16.2425 26.0142C17.5016 24.9864 19.0765 24.424 20.7018 24.4217H23.5231C25.1484 24.424 26.7233 24.9864 27.9824 26.0142C29.2415 27.0419 30.1079 28.4723 30.4357 30.0642H13.7892Z" fill="#7E8BFF"/>
</svg>
