<svg width="30" height="30" viewBox="0 0 30 30" fill="none" xmlns="http://www.w3.org/2000/svg">
<path d="M15 20.2969C12.0937 20.2969 9.70312 17.9062 9.70312 15C9.70312 12.0937 12.0937 9.70312 15 9.70312C17.9062 9.70312 20.2969 12.0937 20.2969 15C20.2969 17.9062 17.9062 20.2969 15 20.2969ZM15 10.8281C12.7031 10.8281 10.8281 12.7031 10.8281 15C10.8281 17.2969 12.7031 19.1719 15 19.1719C17.2969 19.1719 19.1719 17.2969 19.1719 15C19.1719 12.7031 17.2969 10.8281 15 10.8281Z" fill="#828282"/>
<path d="M16.5937 26.2031H13.4063L12.5156 23.4844C11.9062 23.2969 11.3438 23.0625 10.7812 22.7813L8.20312 24.0938L5.95312 21.8438L7.26562 19.2656C6.98437 18.7031 6.70312 18.1406 6.5625 17.5313L3.84375 16.6406V13.4531L6.5625 12.5625C6.75 11.9531 6.98437 11.3906 7.26562 10.8281L5.95312 8.25001L8.20312 6L10.7812 7.31251C11.3438 7.03126 11.9062 6.75001 12.5156 6.60938L13.4063 3.89062H16.5937L17.4844 6.60938C18.0938 6.79688 18.6562 7.03126 19.2188 7.31251L21.7969 6L24.0469 8.25001L22.7344 10.8281C23.0156 11.3906 23.2969 11.9531 23.4375 12.5625L26.1563 13.4531V16.6406L23.4375 17.5313C23.25 18.1406 23.0156 18.7031 22.7344 19.2656L24.0469 21.8438L21.7969 24.0938L19.2188 22.7813C18.6562 23.0625 18.0938 23.3438 17.4844 23.4844L16.5937 26.2031ZM14.2031 25.125H15.7969L16.6406 22.5938L16.9219 22.5C17.625 22.3125 18.2812 22.0313 18.9375 21.6563L19.2188 21.5156L21.6094 22.7344L22.7344 21.6094L21.5156 19.2188L21.6562 18.9375C22.0312 18.3281 22.3125 17.625 22.5 16.9219L22.5938 16.6406L25.125 15.7969V14.2031L22.5938 13.3594L22.5 13.0781C22.3125 12.375 22.0312 11.6719 21.6562 11.0625L21.5156 10.7813L22.7344 8.39063L21.6094 7.26563L19.2188 8.48438L18.9375 8.34375C18.3281 7.96875 17.625 7.68751 16.9219 7.50001L16.6406 7.40625L15.7969 4.875H14.2031L13.3594 7.40625L13.0781 7.50001C12.375 7.68751 11.7188 7.96875 11.0625 8.34375L10.7812 8.48438L8.39062 7.26563L7.26562 8.39063L8.48438 10.7813L8.34375 11.0625C7.96875 11.6719 7.6875 12.375 7.5 13.0781L7.40625 13.3594L4.875 14.2031V15.7969L7.40625 16.6406L7.5 16.9219C7.6875 17.625 7.96875 18.3281 8.34375 18.9375L8.48438 19.2188L7.26562 21.6094L8.39062 22.7344L10.7812 21.5156L11.0625 21.6563C11.6719 22.0313 12.375 22.3125 13.0781 22.5L13.3594 22.5938L14.2031 25.125Z" fill="#828282"/>
</svg>
